<svg width="281" height="65" viewBox="0 0 281 65" fill="none" xmlns="http://www.w3.org/2000/svg">
<path d="M85.0078 51H77.7422V22.7812H68.4375V16.7344H94.3125V22.7812H85.0078V51ZM109.758 24.2578C113.273 24.2578 115.969 25.0234 117.844 26.5547C119.719 28.0859 120.656 30.4141 120.656 33.5391V51H115.664L114.281 47.4375H114.094C113.344 48.375 112.578 49.1406 111.797 49.7344C111.016 50.3281 110.117 50.7656 109.102 51.0469C108.086 51.3281 106.852 51.4688 105.398 51.4688C103.852 51.4688 102.461 51.1719 101.227 50.5781C100.008 49.9844 99.0469 49.0781 98.3438 47.8594C97.6406 46.625 97.2891 45.0625 97.2891 43.1719C97.2891 40.3906 98.2656 38.3438 100.219 37.0312C102.172 35.7031 105.102 34.9688 109.008 34.8281L113.555 34.6875V33.5391C113.555 32.1641 113.195 31.1562 112.477 30.5156C111.758 29.875 110.758 29.5547 109.477 29.5547C108.211 29.5547 106.969 29.7344 105.75 30.0938C104.531 30.4531 103.312 30.9062 102.094 31.4531L99.7266 26.625C101.117 25.8906 102.672 25.3125 104.391 24.8906C106.125 24.4688 107.914 24.2578 109.758 24.2578ZM113.555 38.8594L110.789 38.9531C108.477 39.0156 106.867 39.4297 105.961 40.1953C105.07 40.9609 104.625 41.9688 104.625 43.2188C104.625 44.3125 104.945 45.0938 105.586 45.5625C106.227 46.0156 107.062 46.2422 108.094 46.2422C109.625 46.2422 110.914 45.7891 111.961 44.8828C113.023 43.9766 113.555 42.6875 113.555 41.0156V38.8594ZM135.188 14.5312V30.8438C135.188 31.8281 135.148 32.8125 135.07 33.7969C134.992 34.7812 134.906 35.7656 134.812 36.75H134.906C135.391 36.0625 135.883 35.3828 136.383 34.7109C136.898 34.0391 137.445 33.3906 138.023 32.7656L145.359 24.7969H153.422L143.016 36.1641L154.055 51H145.805L138.258 40.3828L135.188 42.8438V51H128.039V14.5312H135.188ZM168.609 24.3047C171.031 24.3047 173.117 24.7734 174.867 25.7109C176.617 26.6328 177.969 27.9766 178.922 29.7422C179.875 31.5078 180.352 33.6641 180.352 36.2109V39.6797H163.453C163.531 41.6953 164.133 43.2812 165.258 44.4375C166.398 45.5781 167.977 46.1484 169.992 46.1484C171.664 46.1484 173.195 45.9766 174.586 45.6328C175.977 45.2891 177.406 44.7734 178.875 44.0859V49.6172C177.578 50.2578 176.219 50.7266 174.797 51.0234C173.391 51.3203 171.68 51.4688 169.664 51.4688C167.039 51.4688 164.711 50.9844 162.68 50.0156C160.664 49.0469 159.078 47.5703 157.922 45.5859C156.781 43.6016 156.211 41.1016 156.211 38.0859C156.211 35.0234 156.727 32.4766 157.758 30.4453C158.805 28.3984 160.258 26.8672 162.117 25.8516C163.977 24.8203 166.141 24.3047 168.609 24.3047ZM168.656 29.3906C167.266 29.3906 166.109 29.8359 165.188 30.7266C164.281 31.6172 163.758 33.0156 163.617 34.9219H173.648C173.633 33.8594 173.438 32.9141 173.062 32.0859C172.703 31.2578 172.156 30.6016 171.422 30.1172C170.703 29.6328 169.781 29.3906 168.656 29.3906ZM217.828 33.8203C217.828 36.4609 217.5 38.8672 216.844 41.0391C216.188 43.1953 215.188 45.0547 213.844 46.6172C212.516 48.1797 210.828 49.3828 208.781 50.2266C206.734 51.0547 204.312 51.4688 201.516 51.4688C198.719 51.4688 196.297 51.0547 194.25 50.2266C192.203 49.3828 190.508 48.1797 189.164 46.6172C187.836 45.0547 186.844 43.1875 186.188 41.0156C185.531 38.8438 185.203 36.4297 185.203 33.7734C185.203 30.2266 185.781 27.1406 186.938 24.5156C188.109 21.875 189.906 19.8281 192.328 18.375C194.75 16.9219 197.828 16.1953 201.562 16.1953C205.281 16.1953 208.336 16.9219 210.727 18.375C213.133 19.8281 214.914 21.875 216.07 24.5156C217.242 27.1562 217.828 30.2578 217.828 33.8203ZM192.82 33.8203C192.82 36.2109 193.117 38.2734 193.711 40.0078C194.32 41.7266 195.266 43.0547 196.547 43.9922C197.828 44.9141 199.484 45.375 201.516 45.375C203.578 45.375 205.25 44.9141 206.531 43.9922C207.812 43.0547 208.742 41.7266 209.32 40.0078C209.914 38.2734 210.211 36.2109 210.211 33.8203C210.211 30.2266 209.539 27.3984 208.195 25.3359C206.852 23.2734 204.641 22.2422 201.562 22.2422C199.516 22.2422 197.844 22.7109 196.547 23.6484C195.266 24.5703 194.32 25.8984 193.711 27.6328C193.117 29.3516 192.82 31.4141 192.82 33.8203ZM239.25 24.3047C242.047 24.3047 244.297 25.0703 246 26.6016C247.703 28.1172 248.555 30.5547 248.555 33.9141V51H241.406V35.6953C241.406 33.8203 241.062 32.4062 240.375 31.4531C239.703 30.5 238.641 30.0234 237.188 30.0234C235 30.0234 233.508 30.7656 232.711 32.25C231.914 33.7344 231.516 35.875 231.516 38.6719V51H224.367V24.7969H229.828L230.789 28.1484H231.188C231.75 27.2422 232.445 26.5078 233.273 25.9453C234.117 25.3828 235.047 24.9688 236.062 24.7031C237.094 24.4375 238.156 24.3047 239.25 24.3047ZM266.719 24.3047C269.141 24.3047 271.227 24.7734 272.977 25.7109C274.727 26.6328 276.078 27.9766 277.031 29.7422C277.984 31.5078 278.461 33.6641 278.461 36.2109V39.6797H261.562C261.641 41.6953 262.242 43.2812 263.367 44.4375C264.508 45.5781 266.086 46.1484 268.102 46.1484C269.773 46.1484 271.305 45.9766 272.695 45.6328C274.086 45.2891 275.516 44.7734 276.984 44.0859V49.6172C275.688 50.2578 274.328 50.7266 272.906 51.0234C271.5 51.3203 269.789 51.4688 267.773 51.4688C265.148 51.4688 262.82 50.9844 260.789 50.0156C258.773 49.0469 257.188 47.5703 256.031 45.5859C254.891 43.6016 254.32 41.1016 254.32 38.0859C254.32 35.0234 254.836 32.4766 255.867 30.4453C256.914 28.3984 258.367 26.8672 260.227 25.8516C262.086 24.8203 264.25 24.3047 266.719 24.3047ZM266.766 29.3906C265.375 29.3906 264.219 29.8359 263.297 30.7266C262.391 31.6172 261.867 33.0156 261.727 34.9219H271.758C271.742 33.8594 271.547 32.9141 271.172 32.0859C270.812 31.2578 270.266 30.6016 269.531 30.1172C268.812 29.6328 267.891 29.3906 266.766 29.3906Z" fill="#131121"/>
<path d="M20.3204 13.0551C18.8763 13.4646 17.6888 13.8085 17.6786 13.8201C17.6614 13.8355 21.3333 18.414 21.9596 19.1558L22.1444 19.3799L24.817 18.6265C26.2885 18.2092 27.4965 17.8654 27.4999 17.8615C27.5033 17.8576 27.0995 17.3515 26.6033 16.741C26.1071 16.1267 25.6383 15.5433 25.5596 15.4467C25.4809 15.3462 25.2892 15.1067 25.1353 14.9174C24.9778 14.7242 24.8067 14.5117 24.752 14.446C24.0915 13.5921 23.0375 12.3133 22.9965 12.3133C22.9691 12.3133 21.7645 12.6494 20.3204 13.0551Z" fill="#131121"/>
<path d="M9.32652 15.8828C7.85924 16.3187 6.66316 16.6922 6.66663 16.7088C6.67706 16.7379 7.09778 17.2941 7.96355 18.4232C8.79107 19.5024 8.99968 19.7763 9.05532 19.8469C9.83416 20.8929 11.2284 22.6695 11.2597 22.657C11.2841 22.6446 12.508 22.2793 13.9787 21.8435C15.453 21.4076 16.6595 21.0465 16.6664 21.0382C16.6734 21.034 16.5065 20.8058 16.2979 20.5359C16.0892 20.262 15.2582 19.1745 14.4481 18.1118C13.6414 17.0492 12.8557 16.0198 12.7061 15.8247C12.5566 15.6296 12.3689 15.3806 12.2889 15.2768C12.1985 15.1523 12.1185 15.0817 12.0699 15.0858C12.0316 15.0858 10.7973 15.447 9.32652 15.8828Z" fill="#131121"/>
<path d="M49.4311 5.36562C48.167 5.76275 47.1367 6.10926 47.1429 6.12873C47.149 6.14819 48.0502 7.40965 49.1451 8.93585L51.1411 11.704L52.0822 11.4159C52.5989 11.2563 53.0295 11.12 53.0357 11.1123C53.0449 11.1006 51.9131 5.2605 51.8024 4.76604C51.787 4.69207 51.7654 4.63367 51.7531 4.63756C51.7408 4.63756 50.6982 4.9646 49.4311 5.36562Z" fill="#131121"/>
<path d="M39.9259 7.73952C38.4866 8.14355 37.3146 8.49319 37.3214 8.50873C37.3454 8.58643 41.7764 14.0641 41.8141 14.0641C41.9066 14.0641 47.1497 12.5685 47.1428 12.5413C47.136 12.5296 46.1353 11.2748 44.9119 9.75578C43.2054 7.63462 42.6742 6.99361 42.6159 6.9975C42.5748 6.9975 41.3651 7.3316 39.9259 7.73952Z" fill="#131121"/>
<path d="M30.1763 10.2709C28.7205 10.6802 27.5153 11.0278 27.5016 11.0432C27.4879 11.0548 27.5634 11.1668 27.6664 11.2865C27.7694 11.4062 27.869 11.5259 27.8862 11.5491C27.9754 11.6649 28.5626 12.387 28.748 12.611C28.8613 12.75 29.6029 13.6613 30.3926 14.6383C31.1823 15.6153 31.8621 16.4571 31.9068 16.5073L31.9823 16.6L34.6398 15.8547C36.099 15.4454 37.3076 15.0978 37.3213 15.0824C37.3454 15.0592 32.9128 9.54879 32.8544 9.53334C32.8407 9.52948 31.6355 9.86157 30.1763 10.2709Z" fill="#131121"/>
<path d="M0.923191 19.8505C0.228351 20.0161 0 20.0849 0 20.1193C0 20.1443 0.300119 21.3256 0.668743 22.7445L1.33749 25.3229V27.9731V30.6265H1.8105H2.28351L2.29004 43.6808L2.29982 56.7382L2.39116 57.0038C2.76631 58.082 3.67645 58.8196 4.81168 58.9727C5.00089 58.9977 11.3882 59.004 28.3319 58.9977L51.591 58.9884L51.852 58.9165C52.7817 58.6665 53.5092 58.0508 53.855 57.2226C54.0703 56.7007 54.054 57.8445 54.054 43.5651V30.6265H54.527H55V27.9543V25.2822L53.9496 25.2885L52.8992 25.2979L51.3953 27.9606L49.8947 30.6265H47.3535C44.9493 30.6265 44.8155 30.6233 44.8384 30.5702C44.8482 30.5421 45.5169 29.3482 46.3259 27.9168C47.1317 26.4886 47.7906 25.3104 47.7906 25.301C47.7906 25.2916 46.6065 25.2822 45.1581 25.2822H42.5222L41.0216 27.9543L39.5211 30.6233L36.9668 30.6265H34.4125L34.543 30.3983C35.0128 29.5764 37.417 25.3041 37.417 25.2947C37.417 25.2885 36.2295 25.2822 34.7811 25.2822H32.1453L30.8111 27.6481C30.0771 28.9513 29.3953 30.1545 29.3007 30.3202L29.1246 30.6265H26.5833H24.0388L24.078 30.5546C24.1008 30.5171 24.2085 30.3233 24.3194 30.1264C24.4336 29.9295 25.024 28.8794 25.6308 27.7981C26.2408 26.7136 26.8084 25.7073 26.8932 25.5541L27.0498 25.2822H24.4075H21.7651L21.6705 25.4447C21.6183 25.5354 20.9365 26.7386 20.1601 28.1169L18.7444 30.6265H16.2064H13.6652L13.7043 30.5546C13.7794 30.4171 16.6305 25.3541 16.6598 25.3041C16.6664 25.2916 15.4789 25.2854 14.0208 25.2885L11.3686 25.2979L11.1207 25.7354C10.8532 26.2136 8.97746 29.5295 8.76216 29.9076C8.69039 30.0358 8.56969 30.2483 8.49792 30.3764L8.36744 30.6108L5.82948 30.6171C3.86566 30.6233 3.29804 30.614 3.31435 30.5858C3.3274 30.564 3.3535 30.5296 3.37307 30.5046C3.38938 30.4827 3.40896 30.4483 3.41222 30.4264C3.42527 30.3483 3.64383 30.0045 3.66993 30.0264C3.68298 30.0389 3.68624 30.0327 3.67645 30.0139C3.6634 29.992 4.24733 28.9232 4.97153 27.6387L6.28618 25.2979L3.85261 25.2822L1.41904 25.2666L3.77758 24.7041C5.07266 24.3978 6.1296 24.1321 6.12633 24.1196C6.11981 24.1071 5.64027 23.5946 5.05635 22.982C4.47242 22.3663 3.62426 21.4694 3.16756 20.9881C2.10083 19.8567 1.879 19.6255 1.85943 19.6286C1.84964 19.6286 1.42883 19.7286 0.923191 19.8505ZM2.53796 21.7694C3.0175 21.9601 3.14472 22.6226 2.76631 22.9601C2.40421 23.2852 1.77788 23.1852 1.56584 22.7664C1.42883 22.4945 1.49407 22.1038 1.70611 21.9132C1.91163 21.7288 2.28025 21.6632 2.53796 21.7694ZM3.26542 27.3387C3.37633 27.3918 3.47746 27.4762 3.53944 27.5606C3.62426 27.6762 3.63731 27.7262 3.64709 27.9325C3.65688 28.1575 3.65036 28.1825 3.54923 28.345C3.28173 28.7638 2.67171 28.8107 2.33897 28.4356C1.79745 27.8325 2.52817 26.9699 3.26542 27.3387ZM48.3778 36.0176V36.1582H38.226H28.0774L28.097 37.102C28.11 37.6208 28.1198 39.7648 28.1198 41.8681V45.6903H38.3141H48.5083V49.3469V53.0035L27.5424 52.9972L6.57325 52.9878L6.56346 49.3375L6.55694 45.6903H17.1916H27.8262V40.9243V36.1582H17.3221H6.81791V36.0176V35.8769H27.5979H48.3778V36.0176Z" fill="#131121"/>
</svg>
