<svg width="141" height="34" viewBox="0 0 141 34" fill="none" xmlns="http://www.w3.org/2000/svg">
<path d="M43.0039 27H39.3711V12.8906H34.7188V9.86719H47.6562V12.8906H43.0039V27ZM55.3789 13.6289C57.1367 13.6289 58.4844 14.0117 59.4219 14.7773C60.3594 15.543 60.8281 16.707 60.8281 18.2695V27H58.332L57.6406 25.2188H57.5469C57.1719 25.6875 56.7891 26.0703 56.3984 26.3672C56.0078 26.6641 55.5586 26.8828 55.0508 27.0234C54.543 27.1641 53.9258 27.2344 53.1992 27.2344C52.4258 27.2344 51.7305 27.0859 51.1133 26.7891C50.5039 26.4922 50.0234 26.0391 49.6719 25.4297C49.3203 24.8125 49.1445 24.0312 49.1445 23.0859C49.1445 21.6953 49.6328 20.6719 50.6094 20.0156C51.5859 19.3516 53.0508 18.9844 55.0039 18.9141L57.2773 18.8438V18.2695C57.2773 17.582 57.0977 17.0781 56.7383 16.7578C56.3789 16.4375 55.8789 16.2773 55.2383 16.2773C54.6055 16.2773 53.9844 16.3672 53.375 16.5469C52.7656 16.7266 52.1562 16.9531 51.5469 17.2266L50.3633 14.8125C51.0586 14.4453 51.8359 14.1562 52.6953 13.9453C53.5625 13.7344 54.457 13.6289 55.3789 13.6289ZM57.2773 20.9297L55.8945 20.9766C54.7383 21.0078 53.9336 21.2148 53.4805 21.5977C53.0352 21.9805 52.8125 22.4844 52.8125 23.1094C52.8125 23.6562 52.9727 24.0469 53.293 24.2812C53.6133 24.5078 54.0312 24.6211 54.5469 24.6211C55.3125 24.6211 55.957 24.3945 56.4805 23.9414C57.0117 23.4883 57.2773 22.8438 57.2773 22.0078V20.9297ZM68.0938 8.76562V16.9219C68.0938 17.4141 68.0742 17.9062 68.0352 18.3984C67.9961 18.8906 67.9531 19.3828 67.9062 19.875H67.9531C68.1953 19.5312 68.4414 19.1914 68.6914 18.8555C68.9492 18.5195 69.2227 18.1953 69.5117 17.8828L73.1797 13.8984H77.2109L72.0078 19.582L77.5273 27H73.4023L69.6289 21.6914L68.0938 22.9219V27H64.5195V8.76562H68.0938ZM84.8047 13.6523C86.0156 13.6523 87.0586 13.8867 87.9336 14.3555C88.8086 14.8164 89.4844 15.4883 89.9609 16.3711C90.4375 17.2539 90.6758 18.332 90.6758 19.6055V21.3398H82.2266C82.2656 22.3477 82.5664 23.1406 83.1289 23.7188C83.6992 24.2891 84.4883 24.5742 85.4961 24.5742C86.332 24.5742 87.0977 24.4883 87.793 24.3164C88.4883 24.1445 89.2031 23.8867 89.9375 23.543V26.3086C89.2891 26.6289 88.6094 26.8633 87.8984 27.0117C87.1953 27.1602 86.3398 27.2344 85.332 27.2344C84.0195 27.2344 82.8555 26.9922 81.8398 26.5078C80.832 26.0234 80.0391 25.2852 79.4609 24.293C78.8906 23.3008 78.6055 22.0508 78.6055 20.543C78.6055 19.0117 78.8633 17.7383 79.3789 16.7227C79.9023 15.6992 80.6289 14.9336 81.5586 14.4258C82.4883 13.9102 83.5703 13.6523 84.8047 13.6523ZM84.8281 16.1953C84.1328 16.1953 83.5547 16.418 83.0938 16.8633C82.6406 17.3086 82.3789 18.0078 82.3086 18.9609H87.3242C87.3164 18.4297 87.2188 17.957 87.0312 17.543C86.8516 17.1289 86.5781 16.8008 86.2109 16.5586C85.8516 16.3164 85.3906 16.1953 84.8281 16.1953ZM109.414 18.4102C109.414 19.7305 109.25 20.9336 108.922 22.0195C108.594 23.0977 108.094 24.0273 107.422 24.8086C106.758 25.5898 105.914 26.1914 104.891 26.6133C103.867 27.0273 102.656 27.2344 101.258 27.2344C99.8594 27.2344 98.6484 27.0273 97.625 26.6133C96.6016 26.1914 95.7539 25.5898 95.082 24.8086C94.418 24.0273 93.9219 23.0938 93.5938 22.0078C93.2656 20.9219 93.1016 19.7148 93.1016 18.3867C93.1016 16.6133 93.3906 15.0703 93.9688 13.7578C94.5547 12.4375 95.4531 11.4141 96.6641 10.6875C97.875 9.96094 99.4141 9.59766 101.281 9.59766C103.141 9.59766 104.668 9.96094 105.863 10.6875C107.066 11.4141 107.957 12.4375 108.535 13.7578C109.121 15.0781 109.414 16.6289 109.414 18.4102ZM96.9102 18.4102C96.9102 19.6055 97.0586 20.6367 97.3555 21.5039C97.6602 22.3633 98.1328 23.0273 98.7734 23.4961C99.4141 23.957 100.242 24.1875 101.258 24.1875C102.289 24.1875 103.125 23.957 103.766 23.4961C104.406 23.0273 104.871 22.3633 105.16 21.5039C105.457 20.6367 105.605 19.6055 105.605 18.4102C105.605 16.6133 105.27 15.1992 104.598 14.168C103.926 13.1367 102.82 12.6211 101.281 12.6211C100.258 12.6211 99.4219 12.8555 98.7734 13.3242C98.1328 13.7852 97.6602 14.4492 97.3555 15.3164C97.0586 16.1758 96.9102 17.207 96.9102 18.4102ZM120.125 13.6523C121.523 13.6523 122.648 14.0352 123.5 14.8008C124.352 15.5586 124.777 16.7773 124.777 18.457V27H121.203V19.3477C121.203 18.4102 121.031 17.7031 120.688 17.2266C120.352 16.75 119.82 16.5117 119.094 16.5117C118 16.5117 117.254 16.8828 116.855 17.625C116.457 18.3672 116.258 19.4375 116.258 20.8359V27H112.684V13.8984H115.414L115.895 15.5742H116.094C116.375 15.1211 116.723 14.7539 117.137 14.4727C117.559 14.1914 118.023 13.9844 118.531 13.8516C119.047 13.7188 119.578 13.6523 120.125 13.6523ZM133.859 13.6523C135.07 13.6523 136.113 13.8867 136.988 14.3555C137.863 14.8164 138.539 15.4883 139.016 16.3711C139.492 17.2539 139.73 18.332 139.73 19.6055V21.3398H131.281C131.32 22.3477 131.621 23.1406 132.184 23.7188C132.754 24.2891 133.543 24.5742 134.551 24.5742C135.387 24.5742 136.152 24.4883 136.848 24.3164C137.543 24.1445 138.258 23.8867 138.992 23.543V26.3086C138.344 26.6289 137.664 26.8633 136.953 27.0117C136.25 27.1602 135.395 27.2344 134.387 27.2344C133.074 27.2344 131.91 26.9922 130.895 26.5078C129.887 26.0234 129.094 25.2852 128.516 24.293C127.945 23.3008 127.66 22.0508 127.66 20.543C127.66 19.0117 127.918 17.7383 128.434 16.7227C128.957 15.6992 129.684 14.9336 130.613 14.4258C131.543 13.9102 132.625 13.6523 133.859 13.6523ZM133.883 16.1953C133.188 16.1953 132.609 16.418 132.148 16.8633C131.695 17.3086 131.434 18.0078 131.363 18.9609H136.379C136.371 18.4297 136.273 17.957 136.086 17.543C135.906 17.1289 135.633 16.8008 135.266 16.5586C134.906 16.3164 134.445 16.1953 133.883 16.1953Z" fill="white"/>
<path d="M10.3449 4.99344C9.60975 5.22526 9.00523 5.4199 9 5.42646C8.99129 5.43521 10.8606 8.02679 11.1794 8.44669L11.2735 8.57354L12.6341 8.14707C13.3832 7.91088 13.9982 7.71624 14 7.71405C14.0017 7.71186 13.7961 7.42537 13.5435 7.07983C13.2909 6.73209 13.0522 6.40186 13.0122 6.34718C12.9721 6.29032 12.8745 6.15473 12.7961 6.04757C12.716 5.93822 12.6289 5.81793 12.601 5.78075C12.2648 5.29743 11.7282 4.57354 11.7073 4.57354C11.6934 4.57354 11.0801 4.76381 10.3449 4.99344Z" fill="white"/>
<path d="M4.74805 6.59406C4.00107 6.84076 3.39215 7.05222 3.39392 7.06162C3.39924 7.07806 3.61342 7.3929 4.05417 8.03198C4.47545 8.64286 4.58166 8.79793 4.60998 8.83788C5.00648 9.42996 5.71629 10.4356 5.73222 10.4285C5.74461 10.4215 6.36769 10.2147 7.11644 9.96801C7.86696 9.72131 8.48118 9.5169 8.48472 9.5122C8.48826 9.50985 8.4033 9.38062 8.29709 9.2279C8.19089 9.07283 7.76783 8.45725 7.3554 7.85576C6.94474 7.25428 6.5447 6.67159 6.46858 6.56116C6.39247 6.45073 6.29688 6.30976 6.25617 6.25102C6.21015 6.18054 6.16944 6.14059 6.14466 6.14294C6.12518 6.14294 5.4968 6.34735 4.74805 6.59406Z" fill="white"/>
<path d="M43.0039 27H39.3711V12.8906H34.7188V9.86719H47.6562V12.8906H43.0039V27ZM55.3789 13.6289C57.1367 13.6289 58.4844 14.0117 59.4219 14.7773C60.3594 15.543 60.8281 16.707 60.8281 18.2695V27H58.332L57.6406 25.2188H57.5469C57.1719 25.6875 56.7891 26.0703 56.3984 26.3672C56.0078 26.6641 55.5586 26.8828 55.0508 27.0234C54.543 27.1641 53.9258 27.2344 53.1992 27.2344C52.4258 27.2344 51.7305 27.0859 51.1133 26.7891C50.5039 26.4922 50.0234 26.0391 49.6719 25.4297C49.3203 24.8125 49.1445 24.0312 49.1445 23.0859C49.1445 21.6953 49.6328 20.6719 50.6094 20.0156C51.5859 19.3516 53.0508 18.9844 55.0039 18.9141L57.2773 18.8438V18.2695C57.2773 17.582 57.0977 17.0781 56.7383 16.7578C56.3789 16.4375 55.8789 16.2773 55.2383 16.2773C54.6055 16.2773 53.9844 16.3672 53.375 16.5469C52.7656 16.7266 52.1562 16.9531 51.5469 17.2266L50.3633 14.8125C51.0586 14.4453 51.8359 14.1562 52.6953 13.9453C53.5625 13.7344 54.457 13.6289 55.3789 13.6289ZM57.2773 20.9297L55.8945 20.9766C54.7383 21.0078 53.9336 21.2148 53.4805 21.5977C53.0352 21.9805 52.8125 22.4844 52.8125 23.1094C52.8125 23.6562 52.9727 24.0469 53.293 24.2812C53.6133 24.5078 54.0312 24.6211 54.5469 24.6211C55.3125 24.6211 55.957 24.3945 56.4805 23.9414C57.0117 23.4883 57.2773 22.8438 57.2773 22.0078V20.9297ZM68.0938 8.76562V16.9219C68.0938 17.4141 68.0742 17.9062 68.0352 18.3984C67.9961 18.8906 67.9531 19.3828 67.9062 19.875H67.9531C68.1953 19.5312 68.4414 19.1914 68.6914 18.8555C68.9492 18.5195 69.2227 18.1953 69.5117 17.8828L73.1797 13.8984H77.2109L72.0078 19.582L77.5273 27H73.4023L69.6289 21.6914L68.0938 22.9219V27H64.5195V8.76562H68.0938ZM84.8047 13.6523C86.0156 13.6523 87.0586 13.8867 87.9336 14.3555C88.8086 14.8164 89.4844 15.4883 89.9609 16.3711C90.4375 17.2539 90.6758 18.332 90.6758 19.6055V21.3398H82.2266C82.2656 22.3477 82.5664 23.1406 83.1289 23.7188C83.6992 24.2891 84.4883 24.5742 85.4961 24.5742C86.332 24.5742 87.0977 24.4883 87.793 24.3164C88.4883 24.1445 89.2031 23.8867 89.9375 23.543V26.3086C89.2891 26.6289 88.6094 26.8633 87.8984 27.0117C87.1953 27.1602 86.3398 27.2344 85.332 27.2344C84.0195 27.2344 82.8555 26.9922 81.8398 26.5078C80.832 26.0234 80.0391 25.2852 79.4609 24.293C78.8906 23.3008 78.6055 22.0508 78.6055 20.543C78.6055 19.0117 78.8633 17.7383 79.3789 16.7227C79.9023 15.6992 80.6289 14.9336 81.5586 14.4258C82.4883 13.9102 83.5703 13.6523 84.8047 13.6523ZM84.8281 16.1953C84.1328 16.1953 83.5547 16.418 83.0938 16.8633C82.6406 17.3086 82.3789 18.0078 82.3086 18.9609H87.3242C87.3164 18.4297 87.2188 17.957 87.0312 17.543C86.8516 17.1289 86.5781 16.8008 86.2109 16.5586C85.8516 16.3164 85.3906 16.1953 84.8281 16.1953ZM109.414 18.4102C109.414 19.7305 109.25 20.9336 108.922 22.0195C108.594 23.0977 108.094 24.0273 107.422 24.8086C106.758 25.5898 105.914 26.1914 104.891 26.6133C103.867 27.0273 102.656 27.2344 101.258 27.2344C99.8594 27.2344 98.6484 27.0273 97.625 26.6133C96.6016 26.1914 95.7539 25.5898 95.082 24.8086C94.418 24.0273 93.9219 23.0938 93.5938 22.0078C93.2656 20.9219 93.1016 19.7148 93.1016 18.3867C93.1016 16.6133 93.3906 15.0703 93.9688 13.7578C94.5547 12.4375 95.4531 11.4141 96.6641 10.6875C97.875 9.96094 99.4141 9.59766 101.281 9.59766C103.141 9.59766 104.668 9.96094 105.863 10.6875C107.066 11.4141 107.957 12.4375 108.535 13.7578C109.121 15.0781 109.414 16.6289 109.414 18.4102ZM96.9102 18.4102C96.9102 19.6055 97.0586 20.6367 97.3555 21.5039C97.6602 22.3633 98.1328 23.0273 98.7734 23.4961C99.4141 23.957 100.242 24.1875 101.258 24.1875C102.289 24.1875 103.125 23.957 103.766 23.4961C104.406 23.0273 104.871 22.3633 105.16 21.5039C105.457 20.6367 105.605 19.6055 105.605 18.4102C105.605 16.6133 105.27 15.1992 104.598 14.168C103.926 13.1367 102.82 12.6211 101.281 12.6211C100.258 12.6211 99.4219 12.8555 98.7734 13.3242C98.1328 13.7852 97.6602 14.4492 97.3555 15.3164C97.0586 16.1758 96.9102 17.207 96.9102 18.4102ZM120.125 13.6523C121.523 13.6523 122.648 14.0352 123.5 14.8008C124.352 15.5586 124.777 16.7773 124.777 18.457V27H121.203V19.3477C121.203 18.4102 121.031 17.7031 120.688 17.2266C120.352 16.75 119.82 16.5117 119.094 16.5117C118 16.5117 117.254 16.8828 116.855 17.625C116.457 18.3672 116.258 19.4375 116.258 20.8359V27H112.684V13.8984H115.414L115.895 15.5742H116.094C116.375 15.1211 116.723 14.7539 117.137 14.4727C117.559 14.1914 118.023 13.9844 118.531 13.8516C119.047 13.7188 119.578 13.6523 120.125 13.6523ZM133.859 13.6523C135.07 13.6523 136.113 13.8867 136.988 14.3555C137.863 14.8164 138.539 15.4883 139.016 16.3711C139.492 17.2539 139.73 18.332 139.73 19.6055V21.3398H131.281C131.32 22.3477 131.621 23.1406 132.184 23.7188C132.754 24.2891 133.543 24.5742 134.551 24.5742C135.387 24.5742 136.152 24.4883 136.848 24.3164C137.543 24.1445 138.258 23.8867 138.992 23.543V26.3086C138.344 26.6289 137.664 26.8633 136.953 27.0117C136.25 27.1602 135.395 27.2344 134.387 27.2344C133.074 27.2344 131.91 26.9922 130.895 26.5078C129.887 26.0234 129.094 25.2852 128.516 24.293C127.945 23.3008 127.66 22.0508 127.66 20.543C127.66 19.0117 127.918 17.7383 128.434 16.7227C128.957 15.6992 129.684 14.9336 130.613 14.4258C131.543 13.9102 132.625 13.6523 133.859 13.6523ZM133.883 16.1953C133.188 16.1953 132.609 16.418 132.148 16.8633C131.695 17.3086 131.434 18.0078 131.363 18.9609H136.379C136.371 18.4297 136.273 17.957 136.086 17.543C135.906 17.1289 135.633 16.8008 135.266 16.5586C134.906 16.3164 134.445 16.1953 133.883 16.1953Z" fill="white"/>
<path d="M25.1649 0.640915C24.5214 0.865703 23.9969 1.06184 24 1.07286C24.0031 1.08388 24.4619 1.79791 25.0193 2.6618L26.0355 4.2287L26.5146 4.06562C26.7776 3.97526 26.9968 3.89813 27 3.89372C27.0047 3.88711 26.4285 0.581413 26.3721 0.30153C26.3643 0.259658 26.3533 0.226601 26.3471 0.228805C26.3408 0.228805 25.81 0.413924 25.1649 0.640915Z" fill="white"/>
<path d="M20.3259 1.98463C19.5932 2.21332 18.9965 2.41123 19 2.42003C19.0122 2.46401 21.268 5.56461 21.2872 5.56461C21.3343 5.56461 24.0035 4.71799 24 4.7026C23.9965 4.696 23.4871 3.98572 22.8643 3.12591C21.9955 1.92525 21.7251 1.56242 21.6954 1.56462C21.6745 1.56462 21.0586 1.75373 20.3259 1.98463Z" fill="white"/>
<path d="M15.3625 3.4175C14.6213 3.6492 14.0078 3.84592 14.0008 3.85466C13.9938 3.86122 14.0323 3.9246 14.0847 3.99236C14.1372 4.06012 14.1879 4.12788 14.1966 4.141C14.242 4.20657 14.5409 4.61531 14.6353 4.74209C14.693 4.82078 15.0706 5.33662 15.4726 5.88962C15.8746 6.44263 16.2207 6.91913 16.2434 6.94754L16.2819 7L17.6348 6.57814C18.3777 6.34645 18.993 6.14973 19 6.14099C19.0122 6.12787 16.7556 3.00876 16.7259 3.00002C16.7189 2.99783 16.1054 3.18581 15.3625 3.4175Z" fill="white"/>
<path d="M0.469988 8.8399C0.116251 8.93366 0 8.97258 0 8.99204C0 9.00619 0.152788 9.67488 0.340451 10.478L0.680902 11.9375V13.4376V14.9395H0.921708H1.16251L1.16584 22.3287L1.17082 29.7197L1.21732 29.8701C1.4083 30.4804 1.87165 30.8979 2.44958 30.9846C2.54591 30.9987 5.79763 31.0023 14.4235 30.9987L26.2645 30.9934L26.3974 30.9527C26.8707 30.8112 27.241 30.4627 27.4171 29.9939C27.5267 29.6985 27.5184 30.346 27.5184 22.2633V14.9395H27.7592H28V13.427V11.9145L27.4652 11.918L26.9305 11.9233L26.1649 13.4305L25.4009 14.9395H24.1072C22.8833 14.9395 22.8152 14.9377 22.8268 14.9077C22.8318 14.8917 23.1722 14.216 23.5841 13.4058C23.9943 12.5973 24.3298 11.9304 24.3298 11.9251C24.3298 11.9198 23.7269 11.9145 22.9896 11.9145H21.6477L20.8837 13.427L20.1198 14.9377L18.8195 14.9395H17.5191L17.5855 14.8104C17.8247 14.3451 19.0486 11.9269 19.0486 11.9215C19.0486 11.918 18.4441 11.9145 17.7068 11.9145H16.3649L15.6856 13.2536C15.312 13.9913 14.9649 14.6724 14.9167 14.7661L14.827 14.9395H13.5333H12.238L12.2579 14.8988C12.2695 14.8776 12.3243 14.7679 12.3808 14.6565C12.4389 14.545 12.7395 13.9506 13.0484 13.3385C13.359 12.7247 13.6479 12.1551 13.6911 12.0684L13.7708 11.9145H12.4256H11.0804L11.0323 12.0065C11.0057 12.0578 10.6586 12.7388 10.2633 13.519L9.54259 14.9395H8.25053H6.95682L6.97675 14.8988C7.01495 14.821 8.46643 11.9552 8.48138 11.9269C8.4847 11.9198 7.88019 11.9162 7.13784 11.918L5.78766 11.9233L5.66145 12.171C5.52527 12.4416 4.57034 14.3186 4.46074 14.5326C4.4242 14.6052 4.36275 14.7255 4.32622 14.798L4.25979 14.9307L2.96773 14.9342C1.96797 14.9377 1.679 14.9324 1.68731 14.9165C1.69395 14.9041 1.70724 14.8847 1.7172 14.8705C1.7255 14.8581 1.73547 14.8387 1.73713 14.8263C1.74377 14.7821 1.85504 14.5875 1.86833 14.5999C1.87497 14.6069 1.87663 14.6034 1.87165 14.5928C1.86501 14.5804 2.16228 13.9754 2.53096 13.2483L3.20024 11.9233L1.96133 11.9145L0.72242 11.9056L1.92313 11.5872C2.58244 11.4138 3.12052 11.2635 3.11886 11.2564C3.11554 11.2493 2.87141 10.9592 2.57414 10.6125C2.27687 10.264 1.84508 9.75626 1.61257 9.48383C1.06951 8.84344 0.956584 8.71253 0.946619 8.7143C0.941637 8.7143 0.727402 8.77091 0.469988 8.8399ZM1.29205 9.92609C1.53618 10.034 1.60095 10.409 1.4083 10.6001C1.22396 10.7841 0.905101 10.7275 0.797153 10.4904C0.727402 10.3365 0.760617 10.1154 0.868565 10.0075C0.973191 9.90309 1.16085 9.86594 1.29205 9.92609ZM1.6624 13.0785C1.71886 13.1086 1.77034 13.1563 1.8019 13.2041C1.84508 13.2695 1.85172 13.2978 1.8567 13.4146C1.86168 13.542 1.85836 13.5561 1.80688 13.6481C1.6707 13.8852 1.36014 13.9117 1.19075 13.6994C0.915065 13.358 1.28707 12.8697 1.6624 13.0785ZM24.6287 17.9911V18.0707H19.4605H14.294L14.3039 18.6049C14.3106 18.8986 14.3155 20.1121 14.3155 21.3027V23.4662H19.5053H24.6951V25.536V27.6057L14.0216 27.6022L3.34638 27.5969L3.3414 25.5307L3.33808 23.4662H8.75208H14.1661V20.7684V18.0707H8.81851H3.47094V17.9911V17.9115H14.0498H24.6287V17.9911Z" fill="white"/>
</svg>
