<?xml version="1.0" standalone="no"?>
<!DOCTYPE svg PUBLIC "-//W3C//DTD SVG 20010904//EN"
 "http://www.w3.org/TR/2001/REC-SVG-20010904/DTD/svg10.dtd">
<svg version="1.0" xmlns="http://www.w3.org/2000/svg"
 width="22pt" height="22pt" viewBox="0 0 980.000000 980.000000"
 preserveAspectRatio="xMidYMid meet">

<g transform="translate(0.000000,980.000000) scale(0.100000,-0.100000)"
fill="white" stroke="none">
<path d="M4605 9794 c-22 -2 -96 -9 -165 -14 -345 -30 -742 -113 -1090 -230
-1680 -562 -2929 -1988 -3264 -3725 -102 -528 -113 -1153 -31 -1672 161 -1016
621 -1939 1325 -2657 260 -265 468 -443 740 -630 1273 -880 2896 -1104 4365
-602 697 238 1310 617 1844 1141 284 279 451 480 656 790 132 199 206 326 304
523 200 400 354 865 435 1312 87 479 99 1030 35 1515 -162 1223 -782 2340
-1739 3135 -176 146 -413 313 -630 443 -145 87 -517 270 -675 332 -425 168
-850 271 -1340 325 -98 11 -690 22 -770 14z m510 -1734 c445 -50 849 -237
1169 -540 771 -732 847 -1920 174 -2748 -34 -42 -206 -222 -382 -400 -176
-177 -317 -324 -314 -327 3 -3 166 -77 364 -166 685 -306 864 -406 1213 -680
144 -114 466 -437 587 -589 96 -121 233 -317 288 -411 l26 -46 -77 -89 c-318
-365 -699 -678 -1123 -921 -505 -290 -1089 -478 -1695 -545 -161 -17 -729 -17
-890 0 -866 96 -1640 421 -2315 974 -123 101 -478 446 -499 486 -9 17 1 40 69
151 311 516 757 961 1275 1276 113 69 480 252 873 435 122 58 222 107 222 110
0 3 -153 155 -340 339 -187 183 -367 366 -400 406 -325 397 -492 924 -452
1422 30 361 137 677 331 969 329 497 862 825 1451 893 107 12 339 13 445 1z"/>
</g>
</svg>
